<svg width="994" height="463" viewBox="0 0 994 463" fill="none" xmlns="http://www.w3.org/2000/svg">
<path d="M93 462.092C51.5786 462.092 18 428.514 18 387.092C18 345.671 51.5786 312.092 93 312.092L93 387.092L93 462.092ZM96 312.092L171 312.092L171 462.092L96 462.092L96 387.092L96 312.092ZM93 387.092L93 312.092L96 312.092L96 387.092L96 462.092L93 462.092L93 387.092Z" fill="#1ABCFE"/>
<path d="M252.067 10.0027C293.488 10.0397 327.037 43.6483 327 85.0696C326.963 126.491 293.354 160.04 251.933 160.003L252 85.0027L252.067 10.0027ZM248.933 160L173.933 159.933L174.067 9.93308L249.067 10L249 85L248.933 160ZM252 85.0027L251.933 160.003L248.933 160L249 85L249.067 10L252.067 10.0027L252 85.0027Z" fill="#F24E1E"/>
<path d="M18.6309 168.369C15.7039 165.159 17.9813 160 22.3256 160H186.196C187.602 160 188.943 160.592 189.891 161.631L319.369 303.631C322.296 306.841 320.019 312 315.674 312H151.804C150.398 312 149.057 311.408 148.109 310.369L18.6309 168.369Z" fill="#FFBA00"/>
<rect x="171" y="312.094" width="150" height="149.996" rx="5" fill="#00C851"/>
<path d="M880.899 299.531C862.746 299.531 851.291 287.319 851.291 266.457C851.291 246.867 862.218 236.691 879.489 233.892L919.319 227.787V220.409C919.319 199.547 912.974 192.169 896.232 192.169C880.018 192.169 872.087 199.801 872.087 218.373V219.391H853.23V218.373C853.23 189.625 869.796 168 897.642 168C925.487 168 938 189.879 938 220.154V296.986H920.552V265.439H919.319C914.737 286.81 900.814 299.531 880.899 299.531ZM870.325 264.676C870.325 274.853 875.083 279.687 886.01 279.687C905.925 279.687 919.319 269.001 919.319 244.069L884.952 249.666C875.083 251.447 870.325 254.754 870.325 264.676Z" fill="black"/>
<path d="M702.267 296.986H683.233V170.544H700.68V208.706H701.738C704.029 187.59 713.546 168 735.399 168C755.314 168 766.065 185.554 768.532 209.723H769.589C771.881 188.098 781.75 168 803.956 168C826.691 168 838.146 190.388 838.146 220.918V296.986H819.289V228.295C819.289 203.363 812.415 192.678 795.496 192.678C776.815 192.678 770.118 206.416 770.118 234.401V296.986H751.261V228.295C751.261 203.363 744.564 192.678 727.645 192.678C708.787 192.678 702.267 206.416 702.267 234.401V296.986Z" fill="black"/>
<path d="M623.684 299.531C594.957 299.531 576.1 276.125 576.1 233.892C576.1 194.459 594.781 168 623.331 168C650.472 168 668.977 189.625 668.977 228.041C668.977 232.62 668.801 236.182 668.272 239.998H593.9C594.605 264.422 602.888 277.397 623.155 277.397C641.484 277.397 649.062 268.747 649.062 253.737V251.701H668.096V253.991C668.096 280.959 649.767 299.531 623.684 299.531ZM622.979 189.625C603.593 189.625 595.133 202.091 594.076 224.734H651.001V224.225C651.001 200.819 641.66 189.625 622.979 189.625Z" fill="black"/>
<path d="M496.771 296.986H477.737L477.737 170.544H496.771L496.771 220.663H521.796L548.056 170.544H570.262L537.305 231.348L570.085 296.986H547.703L521.796 245.341H496.771V296.986Z" fill="black"/>
<path d="M423.117 299.531C394.919 299.531 378.881 283.503 378.881 254.245V253.482H397.915V255.517C397.915 272.054 404.788 277.397 423.117 277.397C440.212 277.397 445.323 272.309 445.323 261.114C445.323 250.684 441.093 247.376 428.58 244.832L404.612 240.253C388.046 237.2 378 227.023 378 205.907C378 183.773 391.923 168 418.887 168C445.675 168 461.889 183.519 461.889 213.54V214.303H443.032V212.776C443.032 197.766 437.745 189.879 418.358 189.879C402.321 189.879 396.681 194.968 396.681 206.925C396.681 216.847 400.206 220.409 413.424 222.953L433.691 227.023C454.487 230.84 464.004 241.016 464.004 261.878C464.004 285.538 447.79 299.531 423.117 299.531Z" fill="black"/>
<path d="M88.0782 6.17419C91.4699 3.21068 96.5301 3.21067 99.9218 6.17419L120.929 24.529C122.161 25.6057 123.663 26.3261 125.274 26.6126L152.769 31.5023C157.225 32.2947 160.399 36.2725 160.183 40.7929L158.86 68.4755C158.782 70.1226 159.157 71.7596 159.945 73.2079L173.203 97.5644C175.372 101.55 174.236 106.527 170.551 109.175L147.957 125.416C146.623 126.375 145.577 127.681 144.932 129.193L134.03 154.753C132.26 158.902 127.692 161.1 123.346 159.894L96.4054 152.422C94.8315 151.985 93.1685 151.985 91.5946 152.422L64.6541 159.894C60.3075 161.1 55.7399 158.902 53.9702 154.753L43.0681 129.193C42.4234 127.681 41.3771 126.375 40.0427 125.416L17.4487 109.175C13.7643 106.527 12.6275 101.55 14.7969 97.5644L28.0547 73.2079C28.8431 71.7596 29.2184 70.1226 29.1397 68.4755L27.8169 40.7929C27.6009 36.2725 30.7752 32.2947 35.2308 31.5023L62.7255 26.6126C64.3366 26.3261 65.8392 25.6057 67.0714 24.529L88.0782 6.17419Z" fill="#FF6800"/>
<path d="M76.0888 65.1092C76.0888 69.461 84.1316 70.0511 94.5428 70.7887C113.046 72.1901 139.049 74.1078 139 98.9645C139 127.288 117.289 134 94 134C70.7599 133.926 51.4672 129.722 49.0001 98.9645H76.0888C79.0494 106.635 85.9079 108.627 94 108.627C102.043 108.627 111.911 106.635 111.911 98.9645C111.911 94.6128 103.868 93.9489 93.4572 93.2113C74.954 91.8099 48.9507 89.8922 49.0001 65.1092C49.0001 36.7858 70.7106 30 94 30C117.24 30.2213 136.533 34.1305 139 65.1092H111.911C108.951 57.2908 102.092 55.4468 94 55.4468C85.9573 55.4468 76.0888 57.217 76.0888 65.1092Z" fill="white"/>
<rect x="205" y="186" width="142" height="29" fill="#FFFCFC"/>
<rect x="208" y="243" width="125" height="29" fill="#FFFCFC"/>
<rect x="204" y="73.321" width="64.3211" height="39.7251" transform="rotate(-89.9872 204 73.321)" fill="#FFFCFC"/>
<rect x="292.359" y="158.199" width="88.3115" height="60.6158" transform="rotate(-105.337 292.359 158.199)" fill="#FFFCFC"/>
<rect x="205" y="160.176" width="60.1766" height="46.6577" transform="rotate(-89.9872 205 160.176)" fill="#FFFCFC"/>
<rect x="221.038" y="171.234" width="60.6342" height="48.2394" transform="rotate(-105.337 221.038 171.234)" fill="#FFFCFC"/>
<rect x="223" y="66.8042" width="69.4708" height="21.3866" transform="rotate(-74.0739 223 66.8042)" fill="#FFFCFC"/>
<rect x="269" y="73" width="58.4766" height="56.6666" transform="rotate(-62.8718 269 73)" fill="#FFFCFC"/>
<path d="M71 340H145V379H71V340Z" fill="#FFFCFC"/>
<rect x="71" y="423" width="74" height="39" fill="white"/>
<rect x="197" y="462" width="87" height="39" transform="rotate(-90 197 462)" fill="#FFFCFC"/>
<rect x="259" y="462" width="87" height="39" transform="rotate(-90 259 462)" fill="#FFFCFC"/>
</svg>
