<svg width="1094" height="567" viewBox="0 0 1094 567" fill="none" xmlns="http://www.w3.org/2000/svg">
<rect width="1094" height="567" fill="white"/>
<rect width="1094" height="567" fill="black"/>
<path d="M145 504.092C103.579 504.092 70 470.514 70 429.092C70 387.671 103.579 354.092 145 354.092L145 429.092L145 504.092ZM148 354.092L223 354.092L223 504.092L148 504.092L148 429.092L148 354.092ZM145 429.092L145 354.092L148 354.092L148 429.092L148 504.092L145 504.092L145 429.092Z" fill="#1ABCFE"/>
<path d="M304.067 52.0027C345.488 52.0397 379.037 85.6483 379 127.07C378.963 168.491 345.354 202.04 303.933 202.003L304 127.003L304.067 52.0027ZM300.933 202L225.933 201.933L226.067 51.9331L301.067 52L301 127L300.933 202ZM304 127.003L303.933 202.003L300.933 202L301 127L301.067 52L304.067 52.0027L304 127.003Z" fill="#F24E1E"/>
<path d="M70.6309 210.369C67.7039 207.159 69.9813 202 74.3256 202H238.196C239.602 202 240.943 202.592 241.891 203.631L371.369 345.631C374.296 348.841 372.019 354 367.674 354H203.804C202.398 354 201.057 353.408 200.109 352.369L70.6309 210.369Z" fill="#FFBA00"/>
<rect x="223" y="354.094" width="150" height="149.996" rx="5" fill="#00C851"/>
<path d="M932.899 341.531C914.746 341.531 903.291 329.319 903.291 308.457C903.291 288.867 914.218 278.691 931.489 275.892L971.319 269.787V262.409C971.319 241.547 964.974 234.169 948.232 234.169C932.018 234.169 924.087 241.801 924.087 260.373V261.391H905.23V260.373C905.23 231.625 921.796 210 949.642 210C977.487 210 990 231.879 990 262.154V338.986H972.552V307.439H971.319C966.737 328.81 952.814 341.531 932.899 341.531ZM922.325 306.676C922.325 316.853 927.083 321.687 938.01 321.687C957.925 321.687 971.319 311.001 971.319 286.069L936.952 291.666C927.083 293.447 922.325 296.754 922.325 306.676Z" fill="#FFFCFC"/>
<path d="M754.267 338.986H735.233V212.544H752.68V250.706H753.738C756.029 229.59 765.546 210 787.399 210C807.314 210 818.065 227.554 820.532 251.723H821.589C823.881 230.098 833.75 210 855.956 210C878.691 210 890.146 232.388 890.146 262.918V338.986H871.289V270.295C871.289 245.363 864.415 234.678 847.496 234.678C828.815 234.678 822.118 248.416 822.118 276.401V338.986H803.261V270.295C803.261 245.363 796.564 234.678 779.645 234.678C760.787 234.678 754.267 248.416 754.267 276.401V338.986Z" fill="#FFFCFC"/>
<path d="M675.684 341.531C646.957 341.531 628.1 318.125 628.1 275.892C628.1 236.459 646.781 210 675.331 210C702.472 210 720.977 231.625 720.977 270.041C720.977 274.62 720.801 278.182 720.272 281.998H645.9C646.605 306.422 654.888 319.397 675.155 319.397C693.484 319.397 701.062 310.747 701.062 295.737V293.701H720.096V295.991C720.096 322.959 701.767 341.531 675.684 341.531ZM674.979 231.625C655.593 231.625 647.133 244.091 646.076 266.734H703.001V266.225C703.001 242.819 693.66 231.625 674.979 231.625Z" fill="#FFFCFC"/>
<path d="M548.771 338.986H529.737L529.737 212.544H548.771L548.771 262.663H573.796L600.056 212.544H622.262L589.305 273.348L622.085 338.986H599.703L573.796 287.341H548.771V338.986Z" fill="#FFFCFC"/>
<path d="M475.117 341.531C446.919 341.531 430.881 325.503 430.881 296.245V295.482H449.915V297.517C449.915 314.054 456.788 319.397 475.117 319.397C492.212 319.397 497.323 314.309 497.323 303.114C497.323 292.684 493.093 289.376 480.58 286.832L456.612 282.253C440.046 279.2 430 269.023 430 247.907C430 225.773 443.923 210 470.887 210C497.675 210 513.889 225.519 513.889 255.54V256.303H495.032V254.776C495.032 239.766 489.745 231.879 470.358 231.879C454.321 231.879 448.681 236.968 448.681 248.925C448.681 258.847 452.206 262.409 465.424 264.953L485.691 269.023C506.487 272.84 516.004 283.016 516.004 303.878C516.004 327.538 499.79 341.531 475.117 341.531Z" fill="#FFFCFC"/>
<path d="M140.078 48.1742C143.47 45.2107 148.53 45.2107 151.922 48.1742L172.929 66.529C174.161 67.6057 175.663 68.3261 177.274 68.6126L204.769 73.5023C209.225 74.2947 212.399 78.2725 212.183 82.7929L210.86 110.476C210.782 112.123 211.157 113.76 211.945 115.208L225.203 139.564C227.372 143.55 226.236 148.527 222.551 151.175L199.957 167.416C198.623 168.375 197.577 169.681 196.932 171.193L186.03 196.753C184.26 200.902 179.692 203.1 175.346 201.894L148.405 194.422C146.832 193.985 145.168 193.985 143.595 194.422L116.654 201.894C112.308 203.1 107.74 200.902 105.97 196.753L95.0681 171.193C94.4234 169.681 93.3771 168.375 92.0427 167.416L69.4487 151.175C65.7643 148.527 64.6275 143.55 66.7969 139.564L80.0547 115.208C80.8431 113.76 81.2184 112.123 81.1397 110.476L79.8169 82.7929C79.6009 78.2725 82.7752 74.2947 87.2308 73.5023L114.726 68.6126C116.337 68.3261 117.839 67.6057 119.071 66.529L140.078 48.1742Z" fill="#FF6800"/>
<path d="M128.089 107.109C128.089 111.461 136.132 112.051 146.543 112.789C165.046 114.19 191.049 116.108 191 140.965C191 169.288 169.289 176 146 176C122.76 175.926 103.467 171.722 101 140.965H128.089C131.049 148.635 137.908 150.627 146 150.627C154.043 150.627 163.911 148.635 163.911 140.965C163.911 136.613 155.868 135.949 145.457 135.211C126.954 133.81 100.951 131.892 101 107.109C101 78.7858 122.711 72 146 72C169.24 72.2213 188.533 76.1305 191 107.109H163.911C160.951 99.2908 154.092 97.4468 146 97.4468C137.957 97.4468 128.089 99.217 128.089 107.109Z" fill="black"/>
<rect x="257" y="228" width="142" height="29" fill="black"/>
<rect x="260" y="285" width="125" height="29" fill="black"/>
<rect x="256" y="114.79" width="92.7903" height="39.7251" transform="rotate(-89.9872 256 114.79)" fill="black"/>
<rect x="344.359" y="200.199" width="88.3115" height="60.6158" transform="rotate(-105.337 344.359 200.199)" fill="black"/>
<rect x="257" y="202.176" width="60.1766" height="46.6577" transform="rotate(-89.9872 257 202.176)" fill="black"/>
<rect x="273.038" y="213.234" width="60.6342" height="48.2394" transform="rotate(-105.337 273.038 213.234)" fill="black"/>
<rect x="275" y="108.804" width="69.4708" height="21.3866" transform="rotate(-74.0739 275 108.804)" fill="black"/>
<rect x="321" y="115" width="58.4766" height="56.6666" transform="rotate(-62.8718 321 115)" fill="black"/>
<path d="M123 382H197V421H123V382Z" fill="black"/>
<rect x="123" y="465" width="74" height="39" fill="black"/>
<rect x="249" y="522" width="105" height="39" transform="rotate(-90 249 522)" fill="black"/>
<rect x="311" y="522" width="105" height="39" transform="rotate(-90 311 522)" fill="black"/>
</svg>
