<svg width="8" height="8" viewBox="0 0 8 8" fill="none" xmlns="http://www.w3.org/2000/svg">
<path fill-rule="evenodd" clip-rule="evenodd" d="M1.21902 2.79996C1.21902 2.30206 1.50354 1.81173 2.04322 1.42971C2.58186 1.04844 3.34689 0.799989 4.21063 0.799989C5.07437 0.799989 5.83942 1.04844 6.37803 1.42971C6.91772 1.81173 7.20224 2.30206 7.20224 2.79996C7.20224 3.29787 6.91772 3.78819 6.37803 4.17022C5.83942 4.5515 5.07437 4.79993 4.21063 4.79993C4.00516 4.79993 3.80489 4.78585 3.61159 4.75913C3.58598 4.04174 2.88698 3.59995 2.21623 3.59995C1.98787 3.59995 1.76784 3.64699 1.57205 3.73399C1.33919 3.44439 1.21902 3.125 1.21902 2.79996ZM4.21063 5.59992C3.90832 5.59992 3.61374 5.574 3.33105 5.52488C3.29763 5.56288 3.26189 5.59876 3.22419 5.63248C3.22635 5.65396 3.22794 5.6774 3.22862 5.70256C3.23173 5.81824 3.21554 5.97688 3.13729 6.14555C2.9698 6.50659 2.58592 6.78238 1.91854 6.88738C1.0914 7.0175 0.878406 7.26074 0.82711 7.3497C0.800325 7.39614 0.797218 7.43281 0.797824 7.45417C0.798071 7.46293 0.799005 7.46945 0.799639 7.47297C0.805363 7.49013 0.809958 7.50785 0.813336 7.52597C0.833364 7.63205 0.80908 7.73953 0.750732 7.82541C0.718199 7.87333 0.675072 7.91449 0.623126 7.94497C0.583876 7.96809 0.540326 7.98469 0.493972 7.99325C0.447267 8.00201 0.400307 8.00209 0.355066 7.99441C0.296406 7.98457 0.242082 7.96193 0.195062 7.92941C0.148377 7.89725 0.108158 7.85489 0.0781462 7.80401C0.0627414 7.77801 0.0501886 7.75013 0.0409226 7.72081C0.0396581 7.71697 0.0383299 7.71281 0.0369537 7.70833C0.0322828 7.69313 0.0270295 7.67413 0.0219837 7.65173C0.0119359 7.60713 0.00239463 7.54769 0.000384268 7.47697C-0.00368831 7.33378 0.0234755 7.14522 0.13649 6.94922C0.364798 6.55327 0.869534 6.24263 1.79488 6.09707C1.95811 6.07139 2.07856 6.03623 2.16747 5.99916C1.49938 5.97796 0.820141 5.52372 0.820141 4.79993C0.820141 4.59985 0.876052 4.41662 0.969036 4.25802C0.629364 3.84399 0.42126 3.34655 0.42126 2.79996C0.42126 1.9724 0.895729 1.26275 1.58317 0.776145C2.27165 0.288804 3.20185 0 4.21063 0C5.2194 0 6.14963 0.288804 6.8381 0.776145C7.52553 1.26275 8 1.9724 8 2.79996C8 3.62751 7.52553 4.33718 6.8381 4.82377C6.14963 5.31112 5.2194 5.59992 4.21063 5.59992ZM1.75442 4.55138C1.85912 4.4649 2.0213 4.39994 2.21623 4.39994C2.63433 4.39994 2.81455 4.65769 2.81455 4.79993C2.81455 4.83709 2.80637 4.87393 2.78917 4.91081C2.75717 4.97941 2.68969 5.05517 2.58007 5.11357C2.48161 5.16605 2.3567 5.19993 2.21623 5.19993C1.79812 5.19993 1.6179 4.94217 1.6179 4.79993C1.6179 4.72361 1.65464 4.63377 1.75442 4.55138Z" fill="#2C2C2C"/>
</svg>
